<svg viewBox="0 0 630 630" xmlns="http://www.w3.org/2000/svg"><g fill="#292827"><path d="M43.106 0h543.788C610.774 0 630 19.225 630 43.106v543.788c0 23.88-19.225 43.106-43.106 43.106H43.106C19.226 630 0 610.775 0 586.894V43.106C0 19.226 19.225 0 43.106 0z" fill="#efa010"/><path d="M104.566 592.043V403.73h52.206q15.715 0 27.435 6.126 11.72 6.126 18.112 18.112 6.659 11.986 6.659 29.832v80.173q0 17.58-6.925 29.832-6.66 11.986-18.912 18.112-11.986 6.126-28.233 6.126zm33.295-30.098h18.112q9.323 0 14.383-6.925 5.061-7.192 5.061-20.776V463.66q0-14.65-5.06-22.108-5.061-7.458-14.384-7.458h-18.112zm82.958 30.098V403.73h52.206q15.715 0 27.434 6.126 11.72 6.126 18.113 18.112 6.658 11.986 6.658 29.832v80.173q0 17.58-6.925 29.832-6.659 11.986-18.911 18.112-11.986 6.126-28.234 6.126zm33.294-30.098h18.113q9.322 0 14.383-6.925 5.06-7.192 5.06-20.776V463.66q0-14.65-5.06-22.108t-14.383-7.458h-18.113zm134.632 32.229q-24.239 0-38.622-13.584-14.117-13.584-14.117-40.486v-84.701q0-26.636 14.916-40.486 15.182-13.85 39.687-13.85 15.715 0 27.435 6.125 11.72 6.126 18.112 18.112 6.659 11.986 6.659 30.099v84.7q0 17.314-6.925 29.566-6.926 11.986-19.178 18.379-11.986 6.126-27.967 6.126zm-19.178-57.8q0 13.851 5.06 20.776 5.061 6.66 15.183 6.926 9.056 0 14.117-7.192 5.327-7.192 5.327-20.51V460.73q0-14.383-4.794-21.841-4.529-7.458-14.65-7.458-10.92 0-15.715 7.458-4.528 7.191-4.528 21.84zm85.089 55.669V403.73h33.56l32.762 99.35 33.029-99.35h33.56v188.313h-33.56V481.772l-23.972 73.78h-18.113l-23.705-72.981v109.472z" aria-label="DDOM" fill="#fff"/></g></svg>