<?xml version="1.0" encoding="UTF-8" standalone="no"?>
<svg
   version="1.1"
   viewBox="0 0 630 630"
   id="svg1"
   sodipodi:docname="ddom.svg"
   inkscape:version="1.4.2 (ebf0e940d0, 2025-05-08)"
   inkscape:export-filename="ddom.png"
   inkscape:export-xdpi="76.190475"
   inkscape:export-ydpi="76.190475"
   xmlns:inkscape="http://www.inkscape.org/namespaces/inkscape"
   xmlns:sodipodi="http://sodipodi.sourceforge.net/DTD/sodipodi-0.dtd"
   xmlns="http://www.w3.org/2000/svg"
   xmlns:svg="http://www.w3.org/2000/svg">
  <defs
     id="defs1">
    <rect
       x="-598.86726"
       y="441.07443"
       width="657.26303"
       height="465.9237"
       id="rect1" />
    <clipPath
       clipPathUnits="userSpaceOnUse"
       id="clipPath4">
      <path
         d="M 0,0 H 505 V 505 H 0 Z"
         id="path4" />
    </clipPath>
  </defs>
  <sodipodi:namedview
     id="namedview1"
     pagecolor="#ffffff"
     bordercolor="#000000"
     borderopacity="0.25"
     inkscape:showpageshadow="2"
     inkscape:pageopacity="0.0"
     inkscape:pagecheckerboard="0"
     inkscape:deskcolor="#d1d1d1"
     showgrid="false"
     inkscape:zoom="0.80485282"
     inkscape:cx="401.31561"
     inkscape:cy="661.61165"
     inkscape:window-width="3531"
     inkscape:window-height="1418"
     inkscape:window-x="0"
     inkscape:window-y="0"
     inkscape:window-maximized="1"
     inkscape:current-layer="g4" />
  <!--
The MIT License (MIT)

Copyright (c) 2011 Christopher Williams <chris@iterativedesigns.com>,
                     Manuel Strehl <boldewyn@gmail.com>

Permission is hereby granted, free of charge, to any person obtaining a copy
of this software and associated documentation files (the "Software"), to deal
in the Software without restriction, including without limitation the rights
to use, copy, modify, merge, publish, distribute, sublicense, and/or sell
copies of the Software, and to permit persons to whom the Software is
furnished to do so, subject to the following conditions:

The above copyright notice and this permission notice shall be included in
all copies or substantial portions of the Software.

THE SOFTWARE IS PROVIDED "AS IS", WITHOUT WARRANTY OF ANY KIND, EXPRESS OR
IMPLIED, INCLUDING BUT NOT LIMITED TO THE WARRANTIES OF MERCHANTABILITY,
FITNESS FOR A PARTICULAR PURPOSE AND NONINFRINGEMENT. IN NO EVENT SHALL THE
AUTHORS OR COPYRIGHT HOLDERS BE LIABLE FOR ANY CLAIM, DAMAGES OR OTHER
LIABILITY, WHETHER IN AN ACTION OF CONTRACT, TORT OR OTHERWISE, ARISING FROM,
OUT OF OR IN CONNECTION WITH THE SOFTWARE OR THE USE OR OTHER DEALINGS IN
THE SOFTWARE.
-->
  <g
     id="g4"
     transform="matrix(0.79309603,0,0,0.79309603,120.20011,-387.79296)"
     style="fill:#292827;fill-opacity:1">
    <path
       id="background-1-7"
       style="fill:#efa010;stroke-width:1.26088"
       d="M -97.206097,488.96091 H 588.4452 c 30.11101,0 54.352,24.24099 54.352,54.35199 v 685.6513 c 0,30.111 -24.24099,54.352 -54.352,54.352 H -97.206097 c -30.111003,0 -54.351993,-24.241 -54.351993,-54.352 V 543.3129 c 0,-30.111 24.24099,-54.35199 54.351993,-54.35199 z" />
    <path
       style="font-weight:bold;font-stretch:condensed;font-size:343.903px;font-family:DINish;-inkscape-font-specification:'DINish Bold Condensed';text-align:end;letter-spacing:-12.6088px;text-anchor:end;fill:#ffffff;stroke-width:1.03171"
       d="M -19.712183,1235.4569 V 998.01606 h 65.825186 q 19.814725,0 34.591808,7.72434 14.777082,7.7244 22.837309,22.8374 8.39607,15.1129 8.39607,37.6143 v 101.0887 q 0,22.1656 -8.73191,37.6144 -8.396072,15.1129 -23.84484,22.8373 -15.112926,7.7244 -35.599336,7.7244 z m 41.980349,-37.9502 h 22.837309 q 11.754498,0 18.135511,-8.7319 6.381013,-9.0678 6.381013,-26.1958 v -88.9983 q 0,-18.4714 -6.381013,-27.875 -6.381013,-9.4036 -18.135511,-9.4036 H 22.268166 Z m 104.600344,37.9502 V 998.01606 h 65.82518 q 19.81473,0 34.59181,7.72434 14.77708,7.7244 22.83731,22.8374 8.39607,15.1129 8.39607,37.6143 v 101.0887 q 0,22.1656 -8.73191,37.6144 -8.39607,15.1129 -23.84484,22.8373 -15.11293,7.7244 -35.59934,7.7244 z m 41.98034,-37.9502 h 22.83731 q 11.7545,0 18.13551,-8.7319 6.38102,-9.0678 6.38102,-26.1958 v -88.9983 q 0,-18.4714 -6.38102,-27.875 -6.38101,-9.4036 -18.13551,-9.4036 h -22.83731 z m 169.75384,40.637 q -30.56169,0 -48.6972,-17.128 -17.79967,-17.128 -17.79967,-51.0481 v -106.798 q 0,-33.5843 18.8072,-51.0481 19.14304,-17.46387 50.04057,-17.46387 19.81473,0 34.59181,7.72437 14.77708,7.7244 22.83731,22.8373 8.39607,15.1129 8.39607,37.9503 v 106.798 q 0,21.8297 -8.73191,37.2785 -8.73191,15.1129 -24.18068,23.1732 -15.11293,7.7244 -35.2635,7.7244 z m -24.18068,-72.8779 q 0,17.4638 6.38102,26.1957 6.38101,8.3961 19.14304,8.7319 11.41865,0 17.79966,-9.0677 6.71686,-9.0678 6.71686,-25.8599 v -95.3794 q 0,-18.1355 -6.04517,-27.5391 -5.70933,-9.4036 -18.47135,-9.4036 -13.76956,0 -19.81473,9.4036 -5.70933,9.0678 -5.70933,27.5391 z m 107.28707,70.1911 V 998.01606 h 42.31619 l 41.30867,125.26934 41.6445,-125.26934 h 42.31619 V 1235.4569 H 546.97844 V 1096.418 l -30.22585,93.0284 h -22.83731 l -29.89001,-92.0209 v 138.0314 z"
       id="text3"
       aria-label="DDOM" />
    <text
       xml:space="preserve"
       transform="matrix(1.2608814,0,0,1.2608814,-151.55808,488.96091)"
       id="text1"
       style="font-weight:900;font-stretch:condensed;font-size:333.333px;font-family:DINish;-inkscape-font-specification:'DINish Heavy Condensed';text-align:start;writing-mode:lr-tb;direction:ltr;white-space:pre;shape-inside:url(#rect1);display:inline;fill:#ffffff" />
  </g>
</svg>
