<?xml version="1.0" encoding="UTF-8" standalone="no"?>
<svg
   version="1.1"
   viewBox="0 0 630 630"
   id="svg1"
   sodipodi:docname="ddom.svg"
   inkscape:version="1.4.2 (ebf0e940d0, 2025-05-08)"
   inkscape:export-filename="ddom.png"
   inkscape:export-xdpi="39.009525"
   inkscape:export-ydpi="39.009525"
   xmlns:inkscape="http://www.inkscape.org/namespaces/inkscape"
   xmlns:sodipodi="http://sodipodi.sourceforge.net/DTD/sodipodi-0.dtd"
   xmlns="http://www.w3.org/2000/svg"
   xmlns:svg="http://www.w3.org/2000/svg">
  <defs
     id="defs1">
    <rect
       x="-598.86726"
       y="441.07443"
       width="657.26303"
       height="465.9237"
       id="rect1" />
    <clipPath
       clipPathUnits="userSpaceOnUse"
       id="clipPath4">
      <path
         d="M 0,0 H 505 V 505 H 0 Z"
         id="path4" />
    </clipPath>
  </defs>
  <sodipodi:namedview
     id="namedview1"
     pagecolor="#ffffff"
     bordercolor="#000000"
     borderopacity="0.25"
     inkscape:showpageshadow="2"
     inkscape:pageopacity="0.0"
     inkscape:pagecheckerboard="0"
     inkscape:deskcolor="#d1d1d1"
     showgrid="false"
     inkscape:zoom="0.80485282"
     inkscape:cx="401.31561"
     inkscape:cy="661.61165"
     inkscape:window-width="3531"
     inkscape:window-height="1418"
     inkscape:window-x="0"
     inkscape:window-y="0"
     inkscape:window-maximized="1"
     inkscape:current-layer="g4" />
  <!--
The MIT License (MIT)

Copyright (c) 2011 Christopher Williams <chris@iterativedesigns.com>,
                     Manuel Strehl <boldewyn@gmail.com>

Permission is hereby granted, free of charge, to any person obtaining a copy
of this software and associated documentation files (the "Software"), to deal
in the Software without restriction, including without limitation the rights
to use, copy, modify, merge, publish, distribute, sublicense, and/or sell
copies of the Software, and to permit persons to whom the Software is
furnished to do so, subject to the following conditions:

The above copyright notice and this permission notice shall be included in
all copies or substantial portions of the Software.

THE SOFTWARE IS PROVIDED "AS IS", WITHOUT WARRANTY OF ANY KIND, EXPRESS OR
IMPLIED, INCLUDING BUT NOT LIMITED TO THE WARRANTIES OF MERCHANTABILITY,
FITNESS FOR A PARTICULAR PURPOSE AND NONINFRINGEMENT. IN NO EVENT SHALL THE
AUTHORS OR COPYRIGHT HOLDERS BE LIABLE FOR ANY CLAIM, DAMAGES OR OTHER
LIABILITY, WHETHER IN AN ACTION OF CONTRACT, TORT OR OTHERWISE, ARISING FROM,
OUT OF OR IN CONNECTION WITH THE SOFTWARE OR THE USE OR OTHER DEALINGS IN
THE SOFTWARE.
-->
  <g
     id="g4"
     transform="matrix(0.79309603,0,0,0.79309603,120.20011,-387.79296)"
     style="fill:#292827;fill-opacity:1">
    <path
       id="text2-0-6"
       style="font-weight:900;font-size:308.57px;font-family:DINish;-inkscape-font-specification:'DINish Heavy';fill:#ffffff;stroke-width:12.1988"
       d="M 29.105042 782.00255 L 29.105042 995.04717 L 103.53644 995.04717 C 120.00958 995.04717 134.27163 992.13552 146.32514 986.30966 C 158.37866 980.48379 167.72077 971.14168 174.3502 958.2846 C 180.97963 945.42751 184.29442 928.55248 184.29442 907.65972 L 184.29442 868.78665 C 184.29442 847.89389 181.08166 831.12087 174.65311 818.46468 C 168.42546 805.6076 159.48402 796.36504 147.83229 790.74006 C 136.18056 784.9142 122.11761 782.00255 105.64448 782.00255 L 29.105042 782.00255 z M 81.84042 827.20219 L 105.04359 827.20219 C 114.68641 827.20219 121.51507 830.71854 125.53291 837.74976 C 129.75164 844.58008 131.86195 855.82847 131.86195 871.49804 L 131.86195 906.45548 C 131.86195 921.72327 129.55254 932.77008 124.93203 939.6004 C 120.51241 946.43073 113.88284 949.84753 105.04359 949.84753 L 81.84042 949.84753 L 81.84042 827.20219 z M 288.25556 1019.3733 C 260.33158 1019.3733 240.04222 1026.9063 227.38602 1041.9731 C 214.72983 1056.8391 208.40139 1078.435 208.40139 1106.7608 L 208.40139 1151.3571 C 208.40139 1179.6828 214.52826 1201.2787 226.78267 1216.1447 C 239.23797 1230.8098 259.12667 1238.1436 286.44797 1238.1436 C 302.92111 1238.1436 317.18562 1235.3315 329.23913 1229.7065 C 341.29265 1223.8807 350.6323 1214.6381 357.26173 1201.9819 C 363.89116 1189.1249 367.20595 1172.2498 367.20595 1151.3571 L 367.20595 1106.7608 C 367.20595 1075.4216 360.17571 1053.022 346.11327 1039.5622 C 332.25173 1026.1025 312.96527 1019.3733 288.25556 1019.3733 z M 29.105042 1022.6881 L 29.105042 1235.7327 L 103.53644 1235.7327 C 120.00958 1235.7327 134.27163 1232.821 146.32514 1226.9952 C 158.37866 1221.1693 167.72077 1211.8272 174.3502 1198.9701 C 180.97963 1186.113 184.29442 1169.238 184.29442 1148.3452 L 184.29442 1109.4722 C 184.29442 1088.5794 181.08166 1071.8039 174.65311 1059.1477 C 168.42546 1046.2907 159.48402 1037.0506 147.83229 1031.4256 C 136.18056 1025.5997 122.11761 1022.6881 105.64448 1022.6881 L 29.105042 1022.6881 z M 398.54574 1022.6881 L 398.54574 1235.7327 L 451.28112 1235.7327 L 451.28112 1134.7858 L 479.30372 1195.6554 L 512.75401 1195.6554 L 540.17572 1136.2905 L 540.17572 1235.7327 L 592.30528 1235.7327 L 592.30528 1022.6881 L 540.17572 1022.6881 L 496.18032 1123.3345 L 451.28112 1022.6881 L 398.54574 1022.6881 z M 288.25556 1065.1763 C 297.49659 1065.1763 304.22817 1068.4911 308.4469 1075.1205 C 312.86652 1081.7499 315.07638 1093.1999 315.07638 1109.4722 L 315.07638 1149.5495 C 315.07638 1164.8173 312.86652 1175.665 308.4469 1182.0935 C 304.22817 1188.3212 297.49659 1191.4368 288.25556 1191.4368 C 277.80918 1191.4368 270.67939 1188.3212 266.86245 1182.0935 C 263.0455 1175.665 261.13676 1164.8173 261.13676 1149.5495 L 261.13676 1109.4722 C 261.13676 1093.4008 263.0455 1082.0504 266.86245 1075.421 C 270.88029 1068.5906 278.01008 1065.1763 288.25556 1065.1763 z M 81.84042 1067.8877 L 105.04359 1067.8877 C 114.68641 1067.8877 121.51507 1071.4041 125.53291 1078.4353 C 129.75164 1085.2656 131.86195 1096.514 131.86195 1112.1835 L 131.86195 1147.1385 C 131.86195 1162.4063 129.55254 1173.4556 124.93203 1180.2859 C 120.51241 1187.1162 113.88284 1190.533 105.04359 1190.533 L 81.84042 1190.533 L 81.84042 1067.8877 z " />
    <path
       id="background-1-7"
       style="fill:#efa010;stroke-width:1.26088"
       d="M -97.206097,488.96091 H 588.4452 c 30.11101,0 54.352,24.24099 54.352,54.35199 v 685.6513 c 0,30.111 -24.24099,54.352 -54.352,54.352 H -97.206097 c -30.111003,0 -54.351993,-24.241 -54.351993,-54.352 V 543.3129 c 0,-30.111 24.24099,-54.35199 54.351993,-54.35199 z" />
    <text
       xml:space="preserve"
       style="font-style:normal;font-variant:normal;font-weight:800;font-stretch:condensed;font-size:343.903px;font-family:DINish;-inkscape-font-specification:'DINish Ultra-Bold Condensed';text-align:start;writing-mode:lr-tb;direction:ltr;text-anchor:start;fill:#ffffff;stroke-width:1.03171"
       x="603.40002"
       y="1235.4569"
       id="text3"><tspan
         sodipodi:role="line"
         id="tspan3"
         style="font-style:normal;font-variant:normal;font-weight:800;font-stretch:condensed;font-family:DINish;-inkscape-font-specification:'DINish Ultra-Bold Condensed';text-align:end;text-anchor:end;stroke-width:1.03171"
         x="603.40002"
         y="1235.4569">DDOM</tspan></text>
    <text
       xml:space="preserve"
       transform="matrix(1.2608814,0,0,1.2608814,-151.55808,488.96091)"
       id="text1"
       style="font-weight:900;font-stretch:condensed;font-size:333.333px;font-family:DINish;-inkscape-font-specification:'DINish Heavy Condensed';text-align:start;writing-mode:lr-tb;direction:ltr;white-space:pre;shape-inside:url(#rect1);display:inline;fill:#ffffff" />
  </g>
</svg>
