<?xml version="1.0" encoding="UTF-8" standalone="no"?>
<svg
   version="1.1"
   viewBox="0 0 630 630"
   id="svg1"
   sodipodi:docname="ddom.svg"
   inkscape:version="1.4.2 (ebf0e940d0, 2025-05-08)"
   inkscape:export-filename="ddom.png"
   inkscape:export-xdpi="39.009525"
   inkscape:export-ydpi="39.009525"
   xmlns:inkscape="http://www.inkscape.org/namespaces/inkscape"
   xmlns:sodipodi="http://sodipodi.sourceforge.net/DTD/sodipodi-0.dtd"
   xmlns="http://www.w3.org/2000/svg"
   xmlns:svg="http://www.w3.org/2000/svg">
  <defs
     id="defs1">
    <rect
       x="-598.86726"
       y="441.07443"
       width="657.26303"
       height="465.9237"
       id="rect1" />
    <clipPath
       clipPathUnits="userSpaceOnUse"
       id="clipPath4">
      <path
         d="M 0,0 H 505 V 505 H 0 Z"
         id="path4" />
    </clipPath>
  </defs>
  <sodipodi:namedview
     id="namedview1"
     pagecolor="#ffffff"
     bordercolor="#000000"
     borderopacity="0.25"
     inkscape:showpageshadow="2"
     inkscape:pageopacity="0.0"
     inkscape:pagecheckerboard="0"
     inkscape:deskcolor="#d1d1d1"
     showgrid="false"
     inkscape:zoom="0.80485282"
     inkscape:cx="401.31561"
     inkscape:cy="661.61165"
     inkscape:window-width="3531"
     inkscape:window-height="1418"
     inkscape:window-x="0"
     inkscape:window-y="0"
     inkscape:window-maximized="1"
     inkscape:current-layer="g4" />
  <!--
The MIT License (MIT)

Copyright (c) 2011 Christopher Williams <chris@iterativedesigns.com>,
                     Manuel Strehl <boldewyn@gmail.com>

Permission is hereby granted, free of charge, to any person obtaining a copy
of this software and associated documentation files (the "Software"), to deal
in the Software without restriction, including without limitation the rights
to use, copy, modify, merge, publish, distribute, sublicense, and/or sell
copies of the Software, and to permit persons to whom the Software is
furnished to do so, subject to the following conditions:

The above copyright notice and this permission notice shall be included in
all copies or substantial portions of the Software.

THE SOFTWARE IS PROVIDED "AS IS", WITHOUT WARRANTY OF ANY KIND, EXPRESS OR
IMPLIED, INCLUDING BUT NOT LIMITED TO THE WARRANTIES OF MERCHANTABILITY,
FITNESS FOR A PARTICULAR PURPOSE AND NONINFRINGEMENT. IN NO EVENT SHALL THE
AUTHORS OR COPYRIGHT HOLDERS BE LIABLE FOR ANY CLAIM, DAMAGES OR OTHER
LIABILITY, WHETHER IN AN ACTION OF CONTRACT, TORT OR OTHERWISE, ARISING FROM,
OUT OF OR IN CONNECTION WITH THE SOFTWARE OR THE USE OR OTHER DEALINGS IN
THE SOFTWARE.
-->
  <g
     id="g4"
     transform="matrix(0.79309603,0,0,0.79309603,120.20011,-387.79296)"
     style="fill:#292827;fill-opacity:1">
    <path
       id="background-1-7"
       style="fill:#efa010;stroke-width:1.26088"
       d="M -97.206097,488.96091 H 588.4452 c 30.11101,0 54.352,24.24099 54.352,54.35199 v 685.6513 c 0,30.111 -24.24099,54.352 -54.352,54.352 H -97.206097 c -30.111003,0 -54.351993,-24.241 -54.351993,-54.352 V 543.3129 c 0,-30.111 24.24099,-54.35199 54.351993,-54.35199 z" />
    <path
       style="font-weight:800;font-stretch:condensed;font-size:343.903px;font-family:DINish;-inkscape-font-specification:'DINish Ultra-Bold Condensed';text-align:end;text-anchor:end;fill:#ffffff;stroke-width:1.03171"
       d="M -52.836784,1235.4569 V 998.01606 h 67.168558 q 19.814724,0 34.591807,7.72434 15.112926,7.3886 23.508995,22.1657 8.39607,14.777 8.39607,36.9427 v 103.7754 q 0,21.4939 -8.731913,36.6069 -8.731912,15.1129 -24.516523,22.8373 -15.448768,7.3885 -36.606864,7.3885 z m 47.6896762,-43.3237 H 12.988403 q 9.739441,0 14.777082,-7.7244 5.037642,-7.7244 5.037642,-22.5015 v -87.9908 q 0,-15.7846 -5.373484,-23.8448 -5.037642,-8.3961 -14.44124,-8.3961 H -5.1471078 Z M 105.00933,1235.4569 V 998.01606 h 67.16856 q 19.81472,0 34.59181,7.72434 15.11292,7.3886 23.50899,22.1657 8.39607,14.777 8.39607,36.9427 v 103.7754 q 0,21.4939 -8.73191,36.6069 -8.73191,15.1129 -24.51652,22.8373 -15.44877,7.3885 -36.60687,7.3885 z m 47.68968,-43.3237 h 18.13551 q 9.73944,0 14.77708,-7.7244 5.03764,-7.7244 5.03764,-22.5015 v -87.9908 q 0,-15.7846 -5.37348,-23.8448 -5.03764,-8.3961 -14.44124,-8.3961 h -18.13551 z m 176.31747,46.0105 q -30.89754,0 -49.03305,-16.7922 -18.13551,-16.7921 -18.13551,-50.0406 v -109.4847 q 0,-32.5768 19.47888,-50.0406 19.47888,-17.46381 50.71226,-17.46381 19.81473,0 34.92765,7.72441 15.11293,7.3885 23.509,22.5014 8.39607,14.7771 8.39607,37.2786 v 109.4847 q 0,21.1581 -9.06776,36.2711 -9.06775,15.1129 -24.85237,22.8373 -15.44876,7.7244 -35.93517,7.7244 z m -18.8072,-73.5496 q 0,15.1129 5.03764,22.5014 5.03764,7.3886 15.44877,7.7244 9.06775,0 14.44124,-8.0602 5.37348,-8.0602 5.37348,-22.1656 v -94.3718 q 0,-15.4488 -4.70179,-23.8449 -4.36596,-8.3961 -15.11293,-8.3961 -11.41866,0 -16.12045,8.0603 -4.36596,8.0602 -4.36596,24.1807 z m 112.50734,70.8628 V 998.01606 h 48.02552 l 35.93518,117.88084 36.60686,-117.88084 h 48.02552 v 237.44084 h -48.02552 v -124.5977 l -24.18068,81.6098 h -24.85236 l -23.509,-80.6022 v 123.5901 z"
       id="text3"
       aria-label="DDOM" />
    <text
       xml:space="preserve"
       transform="matrix(1.2608814,0,0,1.2608814,-151.55808,488.96091)"
       id="text1"
       style="font-weight:900;font-stretch:condensed;font-size:333.333px;font-family:DINish;-inkscape-font-specification:'DINish Heavy Condensed';text-align:start;writing-mode:lr-tb;direction:ltr;white-space:pre;shape-inside:url(#rect1);display:inline;fill:#ffffff" />
  </g>
</svg>
